<?xml version="1.0" encoding="UTF-8" standalone="no"?>
<!-- Created with Inkscape (http://www.inkscape.org/) -->

<svg
   xmlns:dc="http://purl.org/dc/elements/1.1/"
   xmlns:cc="http://creativecommons.org/ns#"
   xmlns:rdf="http://www.w3.org/1999/02/22-rdf-syntax-ns#"
   xmlns:svg="http://www.w3.org/2000/svg"
   xmlns="http://www.w3.org/2000/svg"
   xmlns:sodipodi="http://sodipodi.sourceforge.net/DTD/sodipodi-0.dtd"
   xmlns:inkscape="http://www.inkscape.org/namespaces/inkscape"
   width="100"
   height="100"
   id="svg6101"
   version="1.1"
   inkscape:version="0.48.4 r9939"
   sodipodi:docname="menu-team.svg">
  <defs
     id="defs6103" />
  <sodipodi:namedview
     id="base"
     pagecolor="#000000"
     bordercolor="#666666"
     borderopacity="1.0"
     inkscape:pageopacity="0"
     inkscape:pageshadow="2"
     inkscape:zoom="2"
     inkscape:cx="15.115118"
     inkscape:cy="53.566545"
     inkscape:document-units="px"
     inkscape:current-layer="layer1"
     showgrid="false"
     fit-margin-top="0"
     fit-margin-left="0"
     fit-margin-right="0"
     fit-margin-bottom="0"
     inkscape:window-width="1022"
     inkscape:window-height="749"
     inkscape:window-x="0"
     inkscape:window-y="52"
     inkscape:window-maximized="0" />
  <metadata
     id="metadata6106">
    <rdf:RDF>
      <cc:Work
         rdf:about="">
        <dc:format>image/svg+xml</dc:format>
        <dc:type
           rdf:resource="http://purl.org/dc/dcmitype/StillImage" />
        <dc:title></dc:title>
      </cc:Work>
    </rdf:RDF>
  </metadata>
  <g
     inkscape:label="Calque 1"
     inkscape:groupmode="layer"
     id="layer1"
     transform="translate(-325,-482.36218)">
    <path
       inkscape:connector-curvature="0"
       style="font-size:68.25894928px;font-style:normal;font-weight:normal;color:#000000;fill:#dfdfdf;fill-opacity:1;fill-rule:nonzero;stroke:none;stroke-width:1;marker:none;visibility:visible;display:inline;overflow:visible;enable-background:accumulate;font-family:BIP"
       d="m 369.84259,510.19668 c -11.68068,0.31506 -23.27089,10.0398 -11.71235,22.85794 3.98839,4.21584 17.30524,6.10903 14.25213,9.9072 -2.47643,3.08079 -8.66389,4.68207 -12.06918,2.22501 -3.87444,-2.79565 -2.96772,-5.63771 -5.41539,-8.22805 -1.99905,-2.11556 -7.6937,1.45273 -7.53536,6.04509 0.0547,1.58623 1.17142,3.30426 2.32988,5.24739 6.24743,10.17522 19.75794,8.4669 28.44125,2.32992 6.24227,-4.41175 8.90525,-12.80461 2.85463,-18.57599 -4.39797,-4.19508 -10.59415,-3.02503 -15.99427,-4.72277 -3.46003,-1.08778 -4.47896,-6.36677 -1.15445,-8.27001 12.62332,-7.22663 7.32235,9.89441 14.79786,4.95363 6.87684,-4.54506 2.71713,-10.44624 -0.98651,-12.40504 -2.42238,-1.00603 -5.11269,-1.43704 -7.80824,-1.36432 z m 18.0513,9.31949 c -0.66693,0.009 -1.31653,0.34053 -1.70022,0.96553 -0.7917,0.90071 -1.64733,2.00718 -1.23836,3.29541 0.47077,1.84858 1.73899,3.34077 2.6657,4.9746 0.84143,1.60248 2.11304,2.91012 3.3164,4.23996 0.41486,0.43592 0.60767,1.24348 0.16793,2.32985 -1.17991,2.04036 -2.56112,4.04001 -3.14848,6.35997 -0.42873,1.16352 -0.50693,3.13053 1.15443,3.23244 1.42171,0.19559 2.95075,0.37155 4.30293,-0.29386 3.99934,-6.49572 6.93122,-13.58176 10.64184,-20.23423 0.99822,-1.19677 0.70484,-3.18649 -0.7766,-3.84117 -1.26895,-0.59908 -2.88636,-0.44291 -3.79916,0.71367 -1.4194,1.9807 -2.47875,4.19027 -3.7362,6.27598 -0.62542,-0.0322 -1.32299,-1.62614 -1.95207,-2.28792 -1.46157,-1.87694 -2.50528,-4.26623 -4.72271,-5.39437 -0.36426,-0.23164 -0.77528,-0.34172 -1.17543,-0.33586 z m -0.0421,27.13989 c -0.47902,0.0168 -0.96917,0.0927 -1.44832,0.25186 -1.94072,0.81226 -2.46893,3.42503 -0.88156,4.82773 1.90932,1.58054 4.37985,0.38152 5.35241,-1.70019 0.85277,-2.23836 -0.94684,-3.45295 -3.02253,-3.3794 z"
       id="path2593-7"
       inkscape:export-filename="/home/signez/Images/logo-round-synopslive.png"
       inkscape:export-xdpi="90"
       inkscape:export-ydpi="90" />
    <path
       transform="matrix(1.0106383,0,0,1.0106383,40.478723,347.41537)"
       d="m 378,183 c 0,25.95738 -21.04262,47 -47,47 -25.95738,0 -47,-21.04262 -47,-47 0,-25.95738 21.04262,-47 47,-47 25.95738,0 47,21.04262 47,47 z"
       sodipodi:ry="47"
       sodipodi:rx="47"
       sodipodi:cy="183"
       sodipodi:cx="331"
       id="path8246"
       style="opacity:0.33333333;color:#000000;fill:none;stroke:#dfdfdf;stroke-width:4.94736862;stroke-miterlimit:4;stroke-opacity:1;stroke-dasharray:none;marker:none;visibility:visible;display:inline;overflow:visible;enable-background:accumulate"
       sodipodi:type="arc" />
  </g>
</svg>
