<?xml version="1.0" encoding="UTF-8" standalone="no"?>
<!-- Created with Inkscape (http://www.inkscape.org/) -->

<svg
   xmlns:dc="http://purl.org/dc/elements/1.1/"
   xmlns:cc="http://creativecommons.org/ns#"
   xmlns:rdf="http://www.w3.org/1999/02/22-rdf-syntax-ns#"
   xmlns:svg="http://www.w3.org/2000/svg"
   xmlns="http://www.w3.org/2000/svg"
   xmlns:sodipodi="http://sodipodi.sourceforge.net/DTD/sodipodi-0.dtd"
   xmlns:inkscape="http://www.inkscape.org/namespaces/inkscape"
   width="100"
   height="100"
   id="svg6101"
   version="1.1"
   inkscape:version="0.48.4 r9939"
   sodipodi:docname="menu-team.svg">
  <defs
     id="defs6103" />
  <sodipodi:namedview
     id="base"
     pagecolor="#000000"
     bordercolor="#666666"
     borderopacity="1.0"
     inkscape:pageopacity="0"
     inkscape:pageshadow="2"
     inkscape:zoom="2"
     inkscape:cx="15.115118"
     inkscape:cy="53.566545"
     inkscape:document-units="px"
     inkscape:current-layer="layer1"
     showgrid="false"
     fit-margin-top="0"
     fit-margin-left="0"
     fit-margin-right="0"
     fit-margin-bottom="0"
     inkscape:window-width="1022"
     inkscape:window-height="749"
     inkscape:window-x="0"
     inkscape:window-y="52"
     inkscape:window-maximized="0" />
  <metadata
     id="metadata6106">
    <rdf:RDF>
      <cc:Work
         rdf:about="">
        <dc:format>image/svg+xml</dc:format>
        <dc:type
           rdf:resource="http://purl.org/dc/dcmitype/StillImage" />
        <dc:title></dc:title>
      </cc:Work>
    </rdf:RDF>
  </metadata>
  <g
     inkscape:label="Calque 1"
     inkscape:groupmode="layer"
     id="layer1"
     transform="translate(-325,-482.36218)">
    <path
       transform="matrix(1.0106383,0,0,1.0106383,40.478723,347.41537)"
       d="m 378,183 c 0,25.95738 -21.04262,47 -47,47 -25.95738,0 -47,-21.04262 -47,-47 0,-25.95738 21.04262,-47 47,-47 25.95738,0 47,21.04262 47,47 z"
       sodipodi:ry="47"
       sodipodi:rx="47"
       sodipodi:cy="183"
       sodipodi:cx="331"
       id="path8246"
       style="opacity:0.33333333;color:#000000;fill:none;stroke:#dfdfdf;stroke-width:4.94736862;stroke-miterlimit:4;stroke-opacity:1;stroke-dasharray:none;marker:none;visibility:visible;display:inline;overflow:visible;enable-background:accumulate"
       sodipodi:type="arc" />
    <path
       style="fill:#dfdfdf;fill-opacity:1"
       inkscape:connector-curvature="0"
       d="m 375.50114,530.89129 c 2.75061,0 5.24661,-1.12222 7.05156,-2.93247 1.79812,-1.80267 2.91049,-4.28883 2.91049,-7.02959 0,-5.49364 -4.46841,-9.96205 -9.9613,-9.96205 -5.49364,0 -9.96205,4.46841 -9.96205,9.96205 0,2.74152 1.11313,5.22616 2.91125,7.02959 1.80419,1.81025 4.29868,2.93247 7.05005,2.93247 z"
       id="path3" />
    <path
       style="fill:#dfdfdf;fill-opacity:1"
       inkscape:connector-curvature="0"
       d="m 401.56979,528.70899 c -1.77539,1.97468 -4.34718,3.21965 -7.20539,3.21965 -1.65112,0 -3.19995,-0.42585 -4.56161,-1.15707 3.54775,4.06377 5.57926,9.50968 5.57926,15.32839 0,0.7782 -0.05,1.49503 -0.1379,2.16639 7.07884,0.0462 12.67856,0.49253 12.67856,-6.64617 0.002,-5.44136 -2.53693,-10.21438 -6.35292,-12.91119 z"
       id="path5" />
    <path
       style="fill:#dfdfdf;fill-opacity:1"
       inkscape:connector-curvature="0"
       d="m 394.36516,529.91001 c 2.11865,0 4.04029,-0.86458 5.42999,-2.25807 1.3844,-1.38819 2.24065,-3.30225 2.24065,-5.41408 0,-4.22973 -3.44091,-7.67064 -7.67064,-7.67064 -4.22972,0 -7.67064,3.44167 -7.67064,7.67064 0,2.11183 0.85625,4.02513 2.24141,5.41408 1.38894,1.39349 3.31058,2.25807 5.42923,2.25807 z"
       id="path7" />
    <path
       style="fill:#dfdfdf;fill-opacity:1"
       inkscape:connector-curvature="0"
       d="m 361.201,530.77005 c -1.36242,0.73274 -2.91201,1.15859 -4.56389,1.15859 -2.85745,0 -5.42999,-1.24497 -7.20538,-3.21889 -3.816,2.6968 -6.35444,7.46907 -6.35444,12.91119 0,6.53705 5.6164,6.64389 12.70433,6.64238 -0.10457,-0.68197 -0.16216,-1.40031 -0.16216,-2.1626 0,-5.81947 2.03303,-11.26613 5.58154,-15.33067 z"
       id="path9" />
    <path
       style="fill:#dfdfdf;fill-opacity:1"
       inkscape:connector-curvature="0"
       d="m 356.63711,529.91001 c 2.11865,0 4.04029,-0.86458 5.42999,-2.25807 1.3844,-1.38819 2.24065,-3.30225 2.24065,-5.41408 0,-4.22973 -3.44091,-7.67064 -7.67064,-7.67064 -4.22972,0 -7.67064,3.44167 -7.67064,7.67064 0,2.11183 0.85625,4.02513 2.24141,5.41408 1.3897,1.39349 3.31058,2.25807 5.42923,2.25807 z"
       id="path11" />
    <path
       style="fill:#dfdfdf;fill-opacity:1"
       inkscape:connector-curvature="0"
       d="m 385.66248,529.94108 c -0.2637,-0.2099 -0.52966,-0.41449 -0.80397,-0.60847 -2.30657,2.5642 -5.6467,4.18047 -9.35813,4.18047 -3.71143,0 -7.05156,-1.61551 -9.35662,-4.18047 -0.27354,0.19323 -0.54027,0.39857 -0.80472,0.60847 -4.50327,3.58413 -7.44786,9.4824 -7.44786,16.15888 0,0.79487 0.0636,1.51549 0.18716,2.17018 1.18663,6.30215 7.87674,6.45597 16.14751,6.45597 0.42055,0 0.84565,-7.6e-4 1.27453,-7.6e-4 1.70568,0 3.35529,0.0318 4.91397,0.0318 6.59843,0 11.58589,-0.58346 12.52171,-6.49386 0.10457,-0.65848 0.17276,-1.36546 0.17276,-2.1626 7.6e-4,-6.67724 -2.94307,-12.57551 -7.44634,-16.15964 z"
       id="path13" />
  </g>
</svg>
